<svg width="400" height="106" viewBox="0 0 400 106" fill="none" xmlns="http://www.w3.org/2000/svg">
<path d="M117.647 39.6783V61.6782H152.742V35.7498C152.742 29.2408 147.385 23.9642 140.778 23.9642H131.605V13.7499H139.183V21.607H152.742V9.03566C152.742 4.0454 148.635 0 143.569 0H126.82C121.754 0 117.647 4.0454 117.647 9.03566V25.5356C117.647 32.0446 123.004 37.3212 129.611 37.3212H139.183V47.9283H131.605V39.6783H117.647Z" fill="white"/>
<path d="M47.8565 61.6782H1.19655L1.1965 39.6783H14.7558V47.9283H22.3331V37.3212H13.1606C6.55301 37.3212 1.1965 32.0446 1.1965 25.5356V8.64282C1.1965 3.86953 5.12461 1.42779e-05 9.97018 1.42779e-05H27.3961C32.2111 1.42779e-05 36.1265 3.82265 36.1695 8.56563L36.2913 21.607H22.3331V13.7499H14.7558V23.9641H24.3272C30.9347 23.9641 36.2913 29.2407 36.2913 35.7498V51.0711L47.6571 1.42779e-05H116.052V61.6782H102.493V13.7499H66.9991L77.7668 61.6782H63.8087L61.8146 52.6425H50.6481L55.035 38.8926H58.6242L55.6332 25.9284L47.8565 61.6782Z" fill="white"/>
<path d="M266.401 61.6782H279.96V14.5356L266.401 16.4999V61.6782Z" fill="white"/>
<path d="M154.337 61.6782V0H191.825L188.624 13.7499H168.295V61.6782H154.337Z" fill="white"/>
<path d="M170.688 27.107L169.093 40.464H182.406L185.515 27.107H170.688Z" fill="white"/>
<path fill-rule="evenodd" clip-rule="evenodd" d="M193.819 61.6782H179.063L193.42 0H209.771L222.134 54.9997V9.03566C222.134 4.0454 226.24 0 231.306 0H315.055C320.121 0 324.227 4.0454 324.227 9.03566V61.6782H299.9C294.174 61.6782 289.531 57.1051 289.531 51.464V13.7499H256.83V21.607H242.871V13.7499H235.693V47.9283H242.871V39.6783H256.431V51.464C256.431 57.1051 251.788 61.6782 246.062 61.6782H209.372L207.378 52.6425H196.61L200.997 38.8926H204.586L201.595 25.9284L193.819 61.6782ZM302.692 13.7499V47.9283H311.067V13.7499H302.692Z" fill="white"/>
<path d="M325.823 0V61.6782H339.781V13.7499H347.358V22.3927C347.358 24.9963 345.215 27.107 342.572 27.107H342.174L340.578 40.464H341.775C344.858 40.464 347.358 42.9265 347.358 45.964V61.6782H360.917V44.34C360.917 40.582 359.495 36.959 356.929 34.1784C359.608 31.5399 361.096 27.9512 361.06 24.2201L360.917 9.42851L371.685 34.9641V61.6782H385.643V36.5355L371.685 0H325.823Z" fill="white"/>
<path d="M79.362 61.6782V16.4999L92.9214 14.5356V61.6782H79.362Z" fill="white"/>
<path d="M400 0L385.643 35.3569L380.06 14.1428L385.643 0H400Z" fill="#F7A944"/>
<path d="M4.55984 87.3384H9.89819V89.7852H1.33459V72.2409H9.67576V74.6876H4.55984V79.5533H8.86945V82.0279H4.55984V87.3384ZM42.5684 89.7852L41.9011 86.1428H38.0642L37.4525 89.7852H34.2551L37.7862 72.2409H42.0958L45.7937 89.7852H42.5684ZM38.4813 83.7239H41.4563L39.9271 75.3271L38.4813 83.7239ZM74.1721 82.9454V89.7852H70.9747V72.2409H77.4252C79.4456 72.2409 80.4558 73.1584 80.4558 74.9935V80.1928C80.4558 81.7128 79.7792 82.6025 78.4261 82.862L81.3455 89.7852H77.8979L75.2287 82.9454H74.1721ZM74.1721 74.6876V80.5821H76.4799C76.7764 80.5821 76.9803 80.5357 77.0915 80.443C77.2028 80.3318 77.2584 80.1279 77.2584 79.8314V75.4383C77.2584 75.1418 77.2028 74.9471 77.0915 74.8545C76.9803 74.7432 76.7764 74.6876 76.4799 74.6876H74.1721ZM109.752 87.3384H114.423V89.7852H106.555V72.2409H109.752V87.3384ZM145.508 89.7852H142.31V84.2244L138.223 72.2409H141.476L143.867 81.2494L146.12 72.2409H149.373L145.508 84.141V89.7852ZM209.745 89.7852L209.078 86.1428H205.241L204.629 89.7852H201.431L204.963 72.2409H209.272L212.97 89.7852H209.745ZM205.658 83.7239H208.633L207.103 75.3271L205.658 83.7239ZM247.326 78.0519H244.101V75.3271C244.101 75.0305 244.046 74.8359 243.934 74.7432C243.823 74.632 243.619 74.5764 243.323 74.5764H242.016C241.719 74.5764 241.515 74.632 241.404 74.7432C241.293 74.8359 241.237 75.0305 241.237 75.3271V86.7267C241.237 87.0233 241.293 87.2272 241.404 87.3384C241.515 87.4311 241.719 87.4774 242.016 87.4774H243.323C243.619 87.4774 243.823 87.4311 243.934 87.3384C244.046 87.2272 244.101 87.0233 244.101 86.7267V84.0576H247.326V87.0604C247.326 88.8954 246.316 89.813 244.296 89.813H241.043C239.022 89.813 238.012 88.8954 238.012 87.0604V74.9935C238.012 73.1584 239.022 72.2409 241.043 72.2409H244.296C246.316 72.2409 247.326 73.1584 247.326 74.9935V78.0519ZM282.391 78.0519H279.166V75.3271C279.166 75.0305 279.11 74.8359 278.999 74.7432C278.888 74.632 278.684 74.5764 278.387 74.5764H277.08C276.784 74.5764 276.58 74.632 276.469 74.7432C276.357 74.8359 276.302 75.0305 276.302 75.3271V86.7267C276.302 87.0233 276.357 87.2272 276.469 87.3384C276.58 87.4311 276.784 87.4774 277.08 87.4774H278.387C278.684 87.4774 278.888 87.4311 278.999 87.3384C279.11 87.2272 279.166 87.0233 279.166 86.7267V84.0576H282.391V87.0604C282.391 88.8954 281.381 89.813 279.36 89.813H276.107C274.087 89.813 273.076 88.8954 273.076 87.0604V74.9935C273.076 73.1584 274.087 72.2409 276.107 72.2409H279.36C281.381 72.2409 282.391 73.1584 282.391 74.9935V78.0519ZM311.505 87.3384H316.844V89.7852H308.28V72.2409H316.621V74.6876H311.505V79.5533H315.815V82.0279H311.505V87.3384ZM347.873 86.5877V82.8342C347.873 82.5376 347.818 82.343 347.707 82.2503C347.595 82.1391 347.391 82.0835 347.095 82.0835H344.843C342.934 82.0835 341.979 81.1567 341.979 79.3031V74.9935C341.979 73.1584 342.98 72.2409 344.982 72.2409H348.04C350.042 72.2409 351.043 73.1584 351.043 74.9935V77.4402H347.818V75.4383C347.818 75.1418 347.762 74.9471 347.651 74.8545C347.54 74.7432 347.336 74.6876 347.039 74.6876H345.983C345.668 74.6876 345.454 74.7432 345.343 74.8545C345.232 74.9471 345.176 75.1418 345.176 75.4383V78.9694C345.176 79.266 345.232 79.4699 345.343 79.5811C345.454 79.6738 345.668 79.7201 345.983 79.7201H348.179C350.125 79.7201 351.099 80.6284 351.099 82.4449V87.0326C351.099 88.8676 350.088 89.7852 348.068 89.7852H345.065C343.045 89.7852 342.035 88.8676 342.035 87.0326V84.6136H345.232V86.5877C345.232 86.8843 345.288 87.0882 345.399 87.1994C345.51 87.2921 345.723 87.3384 346.038 87.3384H347.095C347.391 87.3384 347.595 87.2921 347.707 87.1994C347.818 87.0882 347.873 86.8843 347.873 86.5877ZM382.612 86.5877V82.8342C382.612 82.5376 382.556 82.343 382.445 82.2503C382.334 82.1391 382.13 82.0835 381.833 82.0835H379.581C377.672 82.0835 376.717 81.1567 376.717 79.3031V74.9935C376.717 73.1584 377.718 72.2409 379.72 72.2409H382.779C384.781 72.2409 385.782 73.1584 385.782 74.9935V77.4402H382.556V75.4383C382.556 75.1418 382.501 74.9471 382.389 74.8545C382.278 74.7432 382.074 74.6876 381.778 74.6876H380.721C380.406 74.6876 380.193 74.7432 380.082 74.8545C379.971 74.9471 379.915 75.1418 379.915 75.4383V78.9694C379.915 79.266 379.971 79.4699 380.082 79.5811C380.193 79.6738 380.406 79.7201 380.721 79.7201H382.918C384.864 79.7201 385.837 80.6284 385.837 82.4449V87.0326C385.837 88.8676 384.827 89.7852 382.807 89.7852H379.804C377.783 89.7852 376.773 88.8676 376.773 87.0326V84.6136H379.971V86.5877C379.971 86.8843 380.026 87.0882 380.137 87.1994C380.249 87.2921 380.462 87.3384 380.777 87.3384H381.833C382.13 87.3384 382.334 87.2921 382.445 87.1994C382.556 87.0882 382.612 86.8843 382.612 86.5877Z" fill="white"/>
<path d="M174.676 77.5352L178.13 79.4994V83.428L174.676 85.3923L171.222 83.428V79.4994L174.676 77.5352Z" fill="#E49343"/>
</svg>
